<svg width="32" height="32" viewBox="0 0 32 32" fill="none" xmlns="http://www.w3.org/2000/svg">
  <!-- Background -->
  <rect width="32" height="32" rx="7" fill="#0f172a"/>
  
  <!-- Container outline -->
  <rect x="4" y="8" width="24" height="16" rx="2" stroke="#64748b" stroke-width="0.5" fill="none" opacity="0.3"/>
  
  <!-- Simplified waveform representation -->
  <g opacity="0.8">
    <!-- Track 1 -->
    <path d="M6 12 L7 11 L8 13 L9 10 L10 14 L11 9 L12 13 L13 8 L14 15 L15 9 L16 13 L17 10 L18 14 L19 11 L20 12.5 L21 11.5 L22 13.5 L23 12 L24 13 L25 12.5 L26 13" 
          stroke="#94a3b8" stroke-width="1.2" stroke-linecap="round" stroke-linejoin="round" fill="none"/>
    
    <!-- Track 2 -->
    <path d="M6 16 L7 15 L8 17 L9 14 L10 18 L11 13 L12 17 L13 12 L14 19 L15 13 L16 17 L17 14 L18 18 L19 15 L20 16.5 L21 15.5 L22 17.5 L23 16 L24 17 L25 16.5 L26 17" 
          stroke="#cbd5e1" stroke-width="1.2" stroke-linecap="round" stroke-linejoin="round" fill="none"/>
    
    <!-- Track 3 -->
    <path d="M6 20 L7 19 L8 21 L9 18 L10 22 L11 17 L12 21 L13 16 L14 23 L15 17 L16 21 L17 18 L18 22 L19 19 L20 20.5 L21 19.5 L22 21.5 L23 20 L24 21 L25 20.5 L26 21" 
          stroke="#64748b" stroke-width="1.2" stroke-linecap="round" stroke-linejoin="round" fill="none"/>
  </g>
  
  <!-- Playback cursor -->
  <line x1="17" y1="9" x2="17" y2="23" stroke="#f1f5f9" stroke-width="1" stroke-linecap="round"/>
  
  <!-- Cursor indicators -->
  <circle cx="17" cy="12" r="1.5" fill="#f1f5f9"/>
  <circle cx="17" cy="16" r="1.5" fill="#f1f5f9"/>
  <circle cx="17" cy="20" r="1.5" fill="#f1f5f9"/>
  
  <!-- Track indicators -->
  <circle cx="5" cy="12" r="1" fill="#94a3b8"/>
  <circle cx="5" cy="16" r="1" fill="#cbd5e1"/>
  <circle cx="5" cy="20" r="1" fill="#64748b"/>
</svg>