<svg width="16" height="16" viewBox="0 0 16 16" fill="none" xmlns="http://www.w3.org/2000/svg">
  <!-- Background -->
  <rect width="16" height="16" rx="3" fill="#0f172a"/>
  
  <!-- Simplified waveforms -->
  <path d="M3 5 L4 4 L5 6 L6 3 L7 7 L8 2 L9 6 L10 1 L11 8 L12 3 L13 6" 
        stroke="#3B82F6" stroke-width="0.8" stroke-linecap="round" fill="none"/>
  
  <path d="M3 8 L4 7 L5 9 L6 6 L7 10 L8 5 L9 9 L10 4 L11 11 L12 6 L13 9" 
        stroke="#10B981" stroke-width="0.8" stroke-linecap="round" fill="none"/>
  
  <path d="M3 11 L4 10 L5 12 L6 9 L7 13 L8 8 L9 12 L10 7 L11 14 L12 9 L13 12" 
        stroke="#F59E0B" stroke-width="0.8" stroke-linecap="round" fill="none"/>
  
  <!-- Cursor -->
  <line x1="9" y1="2" x2="9" y2="14" stroke="white" stroke-width="0.5" opacity="0.8"/>
</svg>