<svg width="32" height="32" viewBox="0 0 32 32" fill="none" xmlns="http://www.w3.org/2000/svg">
  <!-- Background -->
  <rect width="32" height="32" rx="7" fill="url(#bg)"/>
  
  <!-- Simplified waveforms -->
  <path d="M6 10 L8 8 L10 12 L12 7 L14 13 L16 6 L18 11 L20 5 L22 14 L24 7 L26 12" 
        stroke="#3B82F6" stroke-width="1.5" stroke-linecap="round" fill="none"/>
  
  <path d="M6 16 L8 14 L10 18 L12 13 L14 19 L16 12 L18 17 L20 11 L22 20 L24 13 L26 18" 
        stroke="#10B981" stroke-width="1.5" stroke-linecap="round" fill="none"/>
  
  <path d="M6 22 L8 20 L10 24 L12 19 L14 25 L16 18 L18 23 L20 17 L22 26 L24 19 L26 24" 
        stroke="#F59E0B" stroke-width="1.5" stroke-linecap="round" fill="none"/>
  
  <!-- Cursor -->
  <line x1="18" y1="6" x2="18" y2="26" stroke="white" stroke-width="1" opacity="0.8"/>
  
  <defs>
    <linearGradient id="bg" x1="0%" y1="0%" x2="100%" y2="100%">
      <stop offset="0%" style="stop-color:#1e293b"/>
      <stop offset="100%" style="stop-color:#0f172a"/>
    </linearGradient>
  </defs>
</svg>