<svg width="16" height="16" viewBox="0 0 16 16" fill="none" xmlns="http://www.w3.org/2000/svg">
  <!-- Background -->
  <rect width="16" height="16" rx="3" fill="#0f172a"/>
  
  <!-- Container outline -->
  <rect x="2" y="4" width="12" height="8" rx="1" stroke="#64748b" stroke-width="0.3" fill="none" opacity="0.3"/>
  
  <!-- Simplified waveform representation -->
  <g opacity="0.8">
    <!-- Track 1 -->
    <path d="M3 6 L4 5.5 L5 6.5 L6 5 L7 7 L8 4.5 L9 6.5 L10 4 L11 7.5 L12 5 L13 6.5" 
          stroke="#94a3b8" stroke-width="0.6" stroke-linecap="round" stroke-linejoin="round" fill="none"/>
    
    <!-- Track 2 -->
    <path d="M3 8 L4 7.5 L5 8.5 L6 7 L7 9 L8 6.5 L9 8.5 L10 6 L11 9.5 L12 7 L13 8.5" 
          stroke="#cbd5e1" stroke-width="0.6" stroke-linecap="round" stroke-linejoin="round" fill="none"/>
    
    <!-- Track 3 -->
    <path d="M3 10 L4 9.5 L5 10.5 L6 9 L7 11 L8 8.5 L9 10.5 L10 8 L11 11.5 L12 9 L13 10.5" 
          stroke="#64748b" stroke-width="0.6" stroke-linecap="round" stroke-linejoin="round" fill="none"/>
  </g>
  
  <!-- Playback cursor -->
  <line x1="8.5" y1="4.5" x2="8.5" y2="11.5" stroke="#f1f5f9" stroke-width="0.5" stroke-linecap="round"/>
  
  <!-- Cursor indicators -->
  <circle cx="8.5" cy="6" r="0.8" fill="#f1f5f9"/>
  <circle cx="8.5" cy="8" r="0.8" fill="#f1f5f9"/>
  <circle cx="8.5" cy="10" r="0.8" fill="#f1f5f9"/>
  
  <!-- Track indicators -->
  <circle cx="2.5" cy="6" r="0.5" fill="#94a3b8"/>
  <circle cx="2.5" cy="8" r="0.5" fill="#cbd5e1"/>
  <circle cx="2.5" cy="10" r="0.5" fill="#64748b"/>
</svg>