<svg width="512" height="512" viewBox="0 0 512 512" fill="none" xmlns="http://www.w3.org/2000/svg">
  <!-- Background with gradient -->
  <rect width="512" height="512" rx="120" fill="url(#background)"/>
  
  <!-- Main waveform tracks -->
  <g opacity="0.9">
    <!-- Top waveform track -->
    <path d="M100 180 L120 160 L140 190 L160 140 L180 200 L200 120 L220 180 L240 100 L260 220 L280 110 L300 190 L320 130 L340 210 L360 150 L380 180 L400 170" 
          stroke="url(#waveGradient1)" stroke-width="6" stroke-linecap="round" stroke-linejoin="round" fill="none"/>
    
    <!-- Middle waveform track -->
    <path d="M100 280 L120 260 L140 300 L160 240 L180 320 L200 220 L220 290 L240 200 L260 330 L280 210 L300 300 L320 230 L340 310 L360 250 L380 280 L400 270" 
          stroke="url(#waveGradient2)" stroke-width="6" stroke-linecap="round" stroke-linejoin="round" fill="none"/>
    
    <!-- Bottom waveform track -->
    <path d="M100 380 L120 360 L140 400 L160 340 L180 420 L200 320 L220 390 L240 300 L260 430 L280 310 L300 400 L320 330 L340 410 L360 350 L380 380 L400 370" 
          stroke="url(#waveGradient3)" stroke-width="6" stroke-linecap="round" stroke-linejoin="round" fill="none"/>
  </g>
  
  <!-- Playback cursor -->
  <line x1="280" y1="120" x2="280" y2="450" stroke="url(#cursorGradient)" stroke-width="4" stroke-linecap="round"/>
  <circle cx="280" cy="180" r="8" fill="url(#cursorGradient)" opacity="0.8"/>
  <circle cx="280" cy="280" r="8" fill="url(#cursorGradient)" opacity="0.8"/>
  <circle cx="280" cy="380" r="8" fill="url(#cursorGradient)" opacity="0.8"/>
  
  <!-- Track indicators -->
  <circle cx="80" cy="180" r="6" fill="#3B82F6" opacity="0.8"/>
  <circle cx="80" cy="280" r="6" fill="#10B981" opacity="0.8"/>
  <circle cx="80" cy="380" r="6" fill="#F59E0B" opacity="0.8"/>
  
  <!-- Modern glass overlay -->
  <rect width="512" height="512" rx="120" fill="url(#glassOverlay)" opacity="0.1"/>
  
  <defs>
    <!-- Background gradient -->
    <linearGradient id="background" x1="0%" y1="0%" x2="100%" y2="100%">
      <stop offset="0%" style="stop-color:#1e293b;stop-opacity:1" />
      <stop offset="50%" style="stop-color:#0f172a;stop-opacity:1" />
      <stop offset="100%" style="stop-color:#020617;stop-opacity:1" />
    </linearGradient>
    
    <!-- Waveform gradients -->
    <linearGradient id="waveGradient1" x1="0%" y1="0%" x2="100%" y2="0%">
      <stop offset="0%" style="stop-color:#3B82F6;stop-opacity:0.8" />
      <stop offset="100%" style="stop-color:#60A5FA;stop-opacity:0.9" />
    </linearGradient>
    
    <linearGradient id="waveGradient2" x1="0%" y1="0%" x2="100%" y2="0%">
      <stop offset="0%" style="stop-color:#10B981;stop-opacity:0.8" />
      <stop offset="100%" style="stop-color:#34D399;stop-opacity:0.9" />
    </linearGradient>
    
    <linearGradient id="waveGradient3" x1="0%" y1="0%" x2="100%" y2="0%">
      <stop offset="0%" style="stop-color:#F59E0B;stop-opacity:0.8" />
      <stop offset="100%" style="stop-color:#FBBF24;stop-opacity:0.9" />
    </linearGradient>
    
    <!-- Cursor gradient -->
    <linearGradient id="cursorGradient" x1="0%" y1="0%" x2="0%" y2="100%">
      <stop offset="0%" style="stop-color:#ffffff;stop-opacity:1" />
      <stop offset="100%" style="stop-color:#e2e8f0;stop-opacity:0.9" />
    </linearGradient>
    
    <!-- Glass overlay -->
    <radialGradient id="glassOverlay" cx="30%" cy="30%" r="70%">
      <stop offset="0%" style="stop-color:#ffffff;stop-opacity:0.3" />
      <stop offset="100%" style="stop-color:#ffffff;stop-opacity:0" />
    </radialGradient>
  </defs>
</svg>